<!DOCTYPE svg PUBLIC "-//W3C//DTD SVG 20010904//EN" "http://www.w3.org/TR/2001/REC-SVG-20010904/DTD/svg10.dtd">
<svg version="1.0" xmlns="http://www.w3.org/2000/svg" width="1200px" height="1200px" viewBox="0 0 12000 12000" preserveAspectRatio="xMidYMid meet">
<g id="layer101" fill="#ffffff" stroke="#ffffff" stroke-width="20" fill-rule="evenodd">
<path d="M0 6000 L0 0 6000 0 L12000 0 12000 6000 L12000 12000 6000 12000 L0 12000 0 6000 M5632 10296 C5520 10279,5491 10269,5361 10205 C5281 10165,5232 10132,5167 10074 C5119 10031,5080 9992,5080 9988 C5080 9983,5064 9963,5046 9942 C5003 9893,4969 9834,4927 9730 C4809 9442,4848 9127,5035 8860 C5073 8806,5189 8692,5245 8655 C5356 8581,5472 8531,5580 8510 C6021 8424,6423 8618,6620 9009 C6670 9109,6686 9167,6700 9289 C6715 9418,6702 9570,6668 9675 C6639 9762,6554 9911,6489 9988 C6439 10047,6296 10170,6276 10170 C6273 10170,6248 10183,6221 10199 C6146 10246,6048 10278,5934 10295 C5805 10313,5744 10313,5632 10296 M5049 7767 C5049 7671,5067 7362,5080 7225 C5092 7102,5130 6893,5161 6780 C5173 6738,5186 6686,5190 6664 C5198 6623,5271 6445,5317 6355 C5354 6281,5441 6150,5484 6105 C5504 6083,5528 6053,5537 6040 C5545 6026,5593 5979,5642 5935 C5692 5891,5747 5841,5764 5824 C5781 5807,5810 5782,5830 5769 C5849 5757,5873 5737,5884 5726 C5894 5715,5980 5649,6074 5579 C6168 5509,6253 5443,6264 5431 C6274 5419,6288 5410,6295 5410 C6301 5410,6334 5386,6367 5357 C6400 5328,6462 5275,6504 5240 C6580 5176,6742 5012,6807 4934 C6907 4813,6935 4774,7002 4665 C7078 4541,7131 4426,7170 4305 C7201 4208,7208 4029,7185 3939 C7157 3827,7100 3722,7021 3641 C6982 3600,6942 3562,6932 3556 C6921 3549,6886 3527,6854 3505 C6766 3447,6587 3382,6427 3350 C6341 3332,6287 3330,6045 3330 C5753 3330,5701 3334,5565 3374 C5373 3431,5248 3503,5120 3630 C4932 3816,4828 4055,4794 4377 L4788 4440 3962 4440 L3137 4440 3144 4287 C3152 4108,3179 3914,3221 3740 C3237 3671,3257 3585,3265 3548 C3278 3488,3312 3388,3382 3200 C3439 3048,3632 2707,3694 2648 C3708 2635,3719 2620,3719 2614 C3719 2604,3749 2570,3870 2442 C3928 2381,4010 2306,4038 2287 C4052 2278,4081 2256,4102 2238 C4164 2184,4326 2084,4465 2014 C4637 1926,4924 1822,5065 1795 C5103 1788,5191 1770,5260 1756 C5558 1696,5934 1669,6243 1688 C6532 1705,6631 1720,7007 1799 C7180 1835,7520 1961,7689 2052 C8050 2245,8270 2437,8514 2771 C8560 2833,8666 3032,8702 3122 C8746 3229,8808 3440,8829 3550 C8861 3718,8871 3988,8855 4230 C8841 4451,8826 4526,8765 4690 C8746 4742,8730 4788,8730 4793 C8729 4816,8562 5101,8534 5125 C8528 5130,8510 5153,8494 5175 C8394 5314,8160 5550,7960 5713 C7918 5747,7878 5782,7870 5791 C7861 5800,7804 5843,7742 5886 C7681 5929,7598 5987,7559 6015 C7520 6042,7480 6069,7471 6075 C7439 6094,7244 6235,7160 6299 C7038 6393,6870 6558,6790 6664 C6705 6776,6664 6854,6610 7012 C6573 7118,6534 7373,6519 7610 C6513 7700,6506 7789,6504 7807 L6500 7840 5775 7840 L5050 7840 5049 7767 " />
</g>

</svg>